# xmcd CD database file
#
# Track frame offsets:
#	150
#	15637
#	34776
#	55332
#	78576
#	92690
#	113799
#	130102
#	145222
#	168612
#	189135
#	209934
#	227036
#	245424
#	262455
#
# Disc length: 3786 seconds
#
# Revision: 1
# Processed by: cddbd v1.5PL3 Copyright (c) Steve Scherf et al.
# Submitted via: CDex 1.51
#
DISCID=d90ec80f
DTITLE=周華健 - 周而復始 KEEP WAKIN 1897-2002 CD2
DYEAR=2002
DGENRE=Unknown
TTITLE0=明天我要嫁給你
TTITLE1=孤枕難眠
TTITLE2=風雨無阻
TTITLE3=其實不想走
TTITLE4=刀劍如夢
TTITLE5=妳喜歡的會有幾個
TTITLE6=愛相隨
TTITLE7=小天堂
TTITLE8=朋友
TTITLE9=終於
TTITLE10=有故事的人
TTITLE11=鬼迷心竅
TTITLE12=上上籤
TTITLE13=忘憂草
TTITLE14=有沒有一首歌會讓你想起我
EXTD=
EXTT0=
EXTT1=
EXTT2=
EXTT3=
EXTT4=
EXTT5=
EXTT6=
EXTT7=
EXTT8=
EXTT9=
EXTT10=
EXTT11=
EXTT12=
EXTT13=
EXTT14=
PLAYORDER=
